<svg id="my-svg" width="100%" xmlns="http://www.w3.org/2000/svg" xmlns:xlink="http://www.w3.org/1999/xlink" style="max-width: 920.219px; background-color: white;" viewBox="-162.21875 -34.70000076293945 920.21875 505.3755798339844" role="graphics-document document" aria-roledescription="gitGraph"><style>#my-svg{font-family:"trebuchet ms",verdana,arial,sans-serif;font-size:16px;fill:#333;}@keyframes edge-animation-frame{from{stroke-dashoffset:0;}}@keyframes dash{to{stroke-dashoffset:0;}}#my-svg .edge-animation-slow{stroke-dasharray:9,5!important;stroke-dashoffset:900;animation:dash 50s linear infinite;stroke-linecap:round;}#my-svg .edge-animation-fast{stroke-dasharray:9,5!important;stroke-dashoffset:900;animation:dash 20s linear infinite;stroke-linecap:round;}#my-svg .error-icon{fill:hsl(220.5882352941, 100%, 98.3333333333%);}#my-svg .error-text{fill:rgb(8.5000000002, 5.7500000001, 0);stroke:rgb(8.5000000002, 5.7500000001, 0);}#my-svg .edge-thickness-normal{stroke-width:1px;}#my-svg .edge-thickness-thick{stroke-width:3.5px;}#my-svg .edge-pattern-solid{stroke-dasharray:0;}#my-svg .edge-thickness-invisible{stroke-width:0;fill:none;}#my-svg .edge-pattern-dashed{stroke-dasharray:3;}#my-svg .edge-pattern-dotted{stroke-dasharray:2;}#my-svg .marker{fill:#0b0b0b;stroke:#0b0b0b;}#my-svg .marker.cross{stroke:#0b0b0b;}#my-svg svg{font-family:"trebuchet ms",verdana,arial,sans-serif;font-size:16px;}#my-svg p{margin:0;}#my-svg .commit-id,#my-svg .commit-msg,#my-svg .branch-label{fill:lightgrey;color:lightgrey;font-family:'trebuchet ms',verdana,arial,sans-serif;font-family:var(--mermaid-font-family);}#my-svg .branch-label0{fill:#333;}#my-svg .commit0{stroke:hsl(40.5882352941, 100%, 68.3333333333%);fill:hsl(40.5882352941, 100%, 68.3333333333%);}#my-svg .commit-highlight0{stroke:rgb(0, 52.2500000001, 161.5000000002);fill:rgb(0, 52.2500000001, 161.5000000002);}#my-svg .label0{fill:hsl(40.5882352941, 100%, 68.3333333333%);}#my-svg .arrow0{stroke:hsl(40.5882352941, 100%, 68.3333333333%);}#my-svg .branch-label1{fill:#333;}#my-svg .commit1{stroke:hsl(-79.4117647059, 100%, 68.3333333333%);fill:hsl(-79.4117647059, 100%, 68.3333333333%);}#my-svg .commit-highlight1{stroke:rgb(52.2500000001, 161.5000000002, 0);fill:rgb(52.2500000001, 161.5000000002, 0);}#my-svg .label1{fill:hsl(-79.4117647059, 100%, 68.3333333333%);}#my-svg .arrow1{stroke:hsl(-79.4117647059, 100%, 68.3333333333%);}#my-svg .branch-label2{fill:#333;}#my-svg .commit2{stroke:hsl(220.5882352941, 100%, 73.3333333333%);fill:hsl(220.5882352941, 100%, 73.3333333333%);}#my-svg .commit-highlight2{stroke:rgb(136.0000000002, 92.0000000001, 0);fill:rgb(136.0000000002, 92.0000000001, 0);}#my-svg .label2{fill:hsl(220.5882352941, 100%, 73.3333333333%);}#my-svg .arrow2{stroke:hsl(220.5882352941, 100%, 73.3333333333%);}#my-svg .branch-label3{fill:#333;}#my-svg .commit3{stroke:hsl(10.5882352941, 100%, 68.3333333333%);fill:hsl(10.5882352941, 100%, 68.3333333333%);}#my-svg .commit-highlight3{stroke:rgb(0, 133.0000000002, 161.5000000002);fill:rgb(0, 133.0000000002, 161.5000000002);}#my-svg .label3{fill:hsl(10.5882352941, 100%, 68.3333333333%);}#my-svg .arrow3{stroke:hsl(10.5882352941, 100%, 68.3333333333%);}#my-svg .branch-label4{fill:#333;}#my-svg .commit4{stroke:hsl(-19.4117647059, 100%, 68.3333333333%);fill:hsl(-19.4117647059, 100%, 68.3333333333%);}#my-svg .commit-highlight4{stroke:rgb(0, 161.5000000002, 109.2500000001);fill:rgb(0, 161.5000000002, 109.2500000001);}#my-svg .label4{fill:hsl(-19.4117647059, 100%, 68.3333333333%);}#my-svg .arrow4{stroke:hsl(-19.4117647059, 100%, 68.3333333333%);}#my-svg .branch-label5{fill:#333;}#my-svg .commit5{stroke:hsl(-49.4117647059, 100%, 68.3333333333%);fill:hsl(-49.4117647059, 100%, 68.3333333333%);}#my-svg .commit-highlight5{stroke:rgb(0, 161.5000000002, 28.5);fill:rgb(0, 161.5000000002, 28.5);}#my-svg .label5{fill:hsl(-49.4117647059, 100%, 68.3333333333%);}#my-svg .arrow5{stroke:hsl(-49.4117647059, 100%, 68.3333333333%);}#my-svg .branch-label6{fill:#333;}#my-svg .commit6{stroke:hsl(100.5882352941, 100%, 68.3333333333%);fill:hsl(100.5882352941, 100%, 68.3333333333%);}#my-svg .commit-highlight6{stroke:rgb(109.2500000001, 0, 161.5000000002);fill:rgb(109.2500000001, 0, 161.5000000002);}#my-svg .label6{fill:hsl(100.5882352941, 100%, 68.3333333333%);}#my-svg .arrow6{stroke:hsl(100.5882352941, 100%, 68.3333333333%);}#my-svg .branch-label7{fill:#333;}#my-svg .commit7{stroke:hsl(160.5882352941, 100%, 68.3333333333%);fill:hsl(160.5882352941, 100%, 68.3333333333%);}#my-svg .commit-highlight7{stroke:rgb(161.5000000002, 0, 52.2500000001);fill:rgb(161.5000000002, 0, 52.2500000001);}#my-svg .label7{fill:hsl(160.5882352941, 100%, 68.3333333333%);}#my-svg .arrow7{stroke:hsl(160.5882352941, 100%, 68.3333333333%);}#my-svg .branch{stroke-width:1;stroke:#0b0b0b;stroke-dasharray:2;}#my-svg .commit-label{font-size:10px;fill:rgb(11.0000000001, 34.0000000002, 0);}#my-svg .commit-label-bkg{font-size:10px;fill:hsl(-79.4117647059, 100%, 93.3333333333%);opacity:0.5;}#my-svg .tag-label{font-size:10px;fill:#333;}#my-svg .tag-label-bkg{fill:#fff4dd;stroke:hsl(40.5882352941, 60%, 83.3333333333%);}#my-svg .tag-hole{fill:#333;}#my-svg .commit-merge{stroke:#fff4dd;fill:#fff4dd;}#my-svg .commit-reverse{stroke:#fff4dd;fill:#fff4dd;stroke-width:3;}#my-svg .commit-highlight-inner{stroke:#fff4dd;fill:#fff4dd;}#my-svg .arrow{stroke-width:8;stroke-linecap:round;fill:none;}#my-svg .gitTitleText{text-anchor:middle;font-size:18px;fill:#333;}#my-svg :root{--mermaid-font-family:"trebuchet ms",verdana,arial,sans-serif;}</style><g/><g class="commit-bullets"/><g class="commit-labels"/><g><line x1="0" y1="0" x2="750" y2="0" class="branch branch0"/><rect class="branchLabelBkg label0" rx="4" ry="4" x="-69" y="-1.5" width="53" height="23" transform="translate(-19, -9.5)"/><g class="branchLabel"><g class="label branch-label0" transform="translate(-79, -10.5)"><text><tspan xml:space="preserve" dy="1em" x="0" class="row">main</tspan></text></g></g><line x1="0" y1="90" x2="750" y2="90" class="branch branch1"/><rect class="branchLabelBkg label1" rx="4" ry="4" x="-135.21875" y="-1.5" width="119.21875" height="23" transform="translate(-19, 80.5)"/><g class="branchLabel"><g class="label branch-label1" transform="translate(-145.21875, 79.5)"><text><tspan xml:space="preserve" dy="1em" x="0" class="row">hotfix/critical</tspan></text></g></g><line x1="0" y1="180" x2="750" y2="180" class="branch branch2"/><rect class="branchLabelBkg label2" rx="4" ry="4" x="-102.78125" y="-1.5" width="86.78125" height="23" transform="translate(-19, 170.5)"/><g class="branchLabel"><g class="label branch-label2" transform="translate(-112.78125, 169.5)"><text><tspan xml:space="preserve" dy="1em" x="0" class="row">release/1</tspan></text></g></g><line x1="0" y1="270" x2="750" y2="270" class="branch branch3"/><rect class="branchLabelBkg label3" rx="4" ry="4" x="-90.421875" y="-1.5" width="74.421875" height="23" transform="translate(-19, 260.5)"/><g class="branchLabel"><g class="label branch-label3" transform="translate(-100.421875, 259.5)"><text><tspan xml:space="preserve" dy="1em" x="0" class="row">develop</tspan></text></g></g><line x1="0" y1="360" x2="750" y2="360" class="branch branch4"/><rect class="branchLabelBkg label4" rx="4" ry="4" x="-127.703125" y="-1.5" width="111.703125" height="23" transform="translate(-19, 350.5)"/><g class="branchLabel"><g class="label branch-label4" transform="translate(-137.703125, 349.5)"><text><tspan xml:space="preserve" dy="1em" x="0" class="row">feature/auth</tspan></text></g></g></g><g class="commit-arrows"><path d="M 10 0 L 10 250 A 20 20, 0, 0, 0, 30 270 L 60 270" class="arrow arrow3"/><path d="M 60 270 L 60 340 A 20 20, 0, 0, 0, 80 360 L 110 360" class="arrow arrow4"/><path d="M 110 360 L 160 360" class="arrow arrow4"/><path d="M 60 270 L 210 270" class="arrow arrow3"/><path d="M 160 360 L 190 360 A 20 20, 0, 0, 0, 210 340 L 210 270" class="arrow arrow4"/><path d="M 10 0 L 10 70 A 20 20, 0, 0, 0, 30 90 L 260 90" class="arrow arrow1"/><path d="M 10 0 L 310 0" class="arrow arrow0"/><path d="M 260 90 L 290 90 A 20 20, 0, 0, 0, 310 70 L 310 0" class="arrow arrow1"/><path d="M 210 270 L 360 270" class="arrow arrow3"/><path d="M 310 0 L 340 0 A 20 20, 0, 0, 1, 360 20 L 360 270" class="arrow arrow0"/><path d="M 360 270 L 410 270" class="arrow arrow3"/><path d="M 410 270 L 410 200 A 20 20, 0, 0, 1, 430 180 L 460 180" class="arrow arrow2"/><path d="M 460 180 L 510 180" class="arrow arrow2"/><path d="M 510 180 L 560 180" class="arrow arrow2"/><path d="M 560 180 L 610 180" class="arrow arrow2"/><path d="M 310 0 L 660 0" class="arrow arrow0"/><path d="M 610 180 L 640 180 A 20 20, 0, 0, 0, 660 160 L 660 0" class="arrow arrow2"/><path d="M 410 270 L 710 270" class="arrow arrow3"/><path d="M 660 0 L 690 0 A 20 20, 0, 0, 1, 710 20 L 710 270" class="arrow arrow0"/></g><g class="commit-bullets"><circle cx="10" cy="0" r="10" class="commit 1.0.0 commit0"/><circle cx="60" cy="270" r="10" class="commit 1.0.1-beta.1.post.1 commit3"/><circle cx="110" cy="360" r="10" class="commit 1.0.1-alpha.92409.post.2 commit4"/><circle cx="160" cy="360" r="10" class="commit 1.0.1-alpha.92409.post.3 commit4"/><circle cx="210" cy="270" r="9" class="commit 1.0.1-beta.1.post.3 commit3"/><circle cx="210" cy="270" r="6" class="commit commit-merge 1.0.1-beta.1.post.3 commit3"/><circle cx="260" cy="90" r="10" class="commit 1.0.1-alpha.11477.post.1 commit1"/><circle cx="310" cy="0" r="9" class="commit 1.0.1 commit0"/><circle cx="310" cy="0" r="6" class="commit commit-merge 1.0.1 commit0"/><circle cx="360" cy="270" r="9" class="commit 1.0.2-beta.1.post.4 commit3"/><circle cx="360" cy="270" r="6" class="commit commit-merge 1.0.2-beta.1.post.4 commit3"/><circle cx="410" cy="270" r="10" class="commit 1.0.2-beta.1.post.5 commit3"/><circle cx="460" cy="180" r="10" class="commit 1.0.2-rc.1.post.1 commit2"/><circle cx="510" cy="180" r="10" class="commit 1.0.2-rc.1.post.2 commit2"/><circle cx="560" cy="180" r="10" class="commit 1.0.2-rc.1.post.3.dev.{timestamp} commit2"/><path d="M 555,175L565,185M555,185L565,175" class="commit commit-reverse 1.0.2-rc.1.post.3.dev.{timestamp} commit2"/><circle cx="610" cy="180" r="10" class="commit 1.0.2-rc.1.post.3 commit2"/><circle cx="660" cy="0" r="9" class="commit 1.1.0 commit0"/><circle cx="660" cy="0" r="6" class="commit commit-merge 1.1.0 commit0"/><circle cx="710" cy="270" r="9" class="commit 1.1.1-beta.1.post.1 commit3"/><circle cx="710" cy="270" r="6" class="commit commit-merge 1.1.1-beta.1.post.1 commit3"/></g><g class="commit-labels"><g transform="translate(-20.0696875, 17.8465625) rotate(-45, 0, 0)"><rect class="commit-label-bkg" x="-3.5390625" y="13.5" width="27.078125" height="15"/><text x="-1.5390625" y="25" class="commit-label">1.0.0</text></g><g transform="translate(-44.5321875, 39.7340625) rotate(-45, 50, 270)"><rect class="commit-label-bkg" x="14.2734375" y="283.5" width="91.453125" height="15.05078125"/><text x="16.2734375" y="295" class="commit-label">1.0.1-beta.1.post.1</text></g><g transform="translate(-54.1153125, 48.3084375) rotate(-45, 100, 360)"><rect class="commit-label-bkg" x="51.6640625" y="373.5" width="116.671875" height="15.05078125"/><text x="53.6640625" y="385" class="commit-label">1.0.1-alpha.92409.post.2</text></g><g transform="translate(-54.1153125, 48.3084375) rotate(-45, 150, 360)"><rect class="commit-label-bkg" x="101.6640625" y="373.5" width="116.671875" height="15.05078125"/><text x="103.6640625" y="385" class="commit-label">1.0.1-alpha.92409.post.3</text></g><g transform="translate(-44.5321875, 39.7340625) rotate(-45, 200, 270)"><rect class="commit-label-bkg" x="164.2734375" y="283.5" width="91.453125" height="15.05078125"/><text x="166.2734375" y="295" class="commit-label">1.0.1-beta.1.post.3</text></g><polygon class="tag-label-bkg" points="163.0625,252.8  &#10;      163.0625,248.8&#10;      171.0625,243.274609375&#10;      248.9375,243.274609375&#10;      248.9375,258.325390625&#10;      171.0625,258.325390625"/><circle cy="250.8" cx="167.0625" r="1.5" class="tag-hole"/><text y="254" class="tag-label" x="175.0625">feature merged</text><g transform="translate(-54.1153125, 48.3084375) rotate(-45, 250, 90)"><rect class="commit-label-bkg" x="201.6640625" y="103.5" width="116.671875" height="15.05078125"/><text x="203.6640625" y="115" class="commit-label">1.0.1-alpha.11477.post.1</text></g><g transform="translate(-20.0696875, 17.8465625) rotate(-45, 300, 0)"><rect class="commit-label-bkg" x="296.4609375" y="13.5" width="27.078125" height="15"/><text x="298.4609375" y="25" class="commit-label">1.0.1</text></g><polygon class="tag-label-bkg" points="264.28125,-17.2  &#10;      264.28125,-21.2&#10;      272.28125,-26.7&#10;      347.71875,-26.7&#10;      347.71875,-11.7&#10;      272.28125,-11.7"/><circle cy="-19.2" cx="268.28125" r="1.5" class="tag-hole"/><text y="-16" class="tag-label" x="276.28125">hotfix released</text><g transform="translate(-44.5321875, 39.7340625) rotate(-45, 350, 270)"><rect class="commit-label-bkg" x="314.2734375" y="283.5" width="91.453125" height="15.05078125"/><text x="316.2734375" y="295" class="commit-label">1.0.2-beta.1.post.4</text></g><polygon class="tag-label-bkg" points="325.859375,252.8  &#10;      325.859375,248.8&#10;      333.859375,243.274609375&#10;      386.140625,243.274609375&#10;      386.140625,258.325390625&#10;      333.859375,258.325390625"/><circle cy="250.8" cx="329.859375" r="1.5" class="tag-hole"/><text y="254" class="tag-label" x="337.859375">sync main</text><g transform="translate(-44.5321875, 39.7340625) rotate(-45, 400, 270)"><rect class="commit-label-bkg" x="364.2734375" y="283.5" width="91.453125" height="15.05078125"/><text x="366.2734375" y="295" class="commit-label">1.0.2-beta.1.post.5</text></g><g transform="translate(-40.1978125, 35.855937499999996) rotate(-45, 450, 180)"><rect class="commit-label-bkg" x="419.9765625" y="193.5" width="80.046875" height="15.05078125"/><text x="421.9765625" y="205" class="commit-label">1.0.2-rc.1.post.1</text></g><g transform="translate(-40.1978125, 35.855937499999996) rotate(-45, 500, 180)"><rect class="commit-label-bkg" x="469.9765625" y="193.5" width="80.046875" height="15.05078125"/><text x="471.9765625" y="205" class="commit-label">1.0.2-rc.1.post.2</text></g><g transform="translate(-69.451875, 62.030625) rotate(-45, 550, 180)"><rect class="commit-label-bkg" x="481.484375" y="193.5" width="157.03125" height="15.05078125"/><text x="483.484375" y="205" class="commit-label">1.0.2-rc.1.post.3.dev.{timestamp}</text></g><polygon class="tag-label-bkg" points="518.171875,162.8  &#10;      518.171875,158.8&#10;      526.171875,153.3&#10;      593.828125,153.3&#10;      593.828125,168.3&#10;      526.171875,168.3"/><circle cy="160.8" cx="522.171875" r="1.5" class="tag-hole"/><text y="164" class="tag-label" x="530.171875">uncommitted</text><g transform="translate(-40.1978125, 35.855937499999996) rotate(-45, 600, 180)"><rect class="commit-label-bkg" x="569.9765625" y="193.5" width="80.046875" height="15.05078125"/><text x="571.9765625" y="205" class="commit-label">1.0.2-rc.1.post.3</text></g><g transform="translate(-20.0696875, 17.8465625) rotate(-45, 650, 0)"><rect class="commit-label-bkg" x="646.4609375" y="13.5" width="27.078125" height="15"/><text x="648.4609375" y="25" class="commit-label">1.1.0</text></g><polygon class="tag-label-bkg" points="618.703125,-17.2  &#10;      618.703125,-21.2&#10;      626.703125,-26.7&#10;      693.296875,-26.7&#10;      693.296875,-11.7&#10;      626.703125,-11.7"/><circle cy="-19.2" cx="622.703125" r="1.5" class="tag-hole"/><text y="-16" class="tag-label" x="630.703125">release 1.1.0</text><g transform="translate(-44.5321875, 39.7340625) rotate(-45, 700, 270)"><rect class="commit-label-bkg" x="664.2734375" y="283.5" width="91.453125" height="15.05078125"/><text x="666.2734375" y="295" class="commit-label">1.1.1-beta.1.post.1</text></g><polygon class="tag-label-bkg" points="670.5390625,252.8  &#10;      670.5390625,248.8&#10;      678.5390625,243.274609375&#10;      741.4609375,243.274609375&#10;      741.4609375,258.325390625&#10;      678.5390625,258.325390625"/><circle cy="250.8" cx="674.5390625" r="1.5" class="tag-hole"/><text y="254" class="tag-label" x="682.5390625">sync release</text></g></svg>
