<svg id="my-svg" width="100%" xmlns="http://www.w3.org/2000/svg" xmlns:xlink="http://www.w3.org/1999/xlink" style="max-width: 891.938px; background-color: white;" viewBox="-128.34375 -34.70000076293945 891.9375 468.7683410644531" role="graphics-document document" aria-roledescription="gitGraph"><style>#my-svg{font-family:"trebuchet ms",verdana,arial,sans-serif;font-size:16px;fill:#333;}@keyframes edge-animation-frame{from{stroke-dashoffset:0;}}@keyframes dash{to{stroke-dashoffset:0;}}#my-svg .edge-animation-slow{stroke-dasharray:9,5!important;stroke-dashoffset:900;animation:dash 50s linear infinite;stroke-linecap:round;}#my-svg .edge-animation-fast{stroke-dasharray:9,5!important;stroke-dashoffset:900;animation:dash 20s linear infinite;stroke-linecap:round;}#my-svg .error-icon{fill:hsl(220.5882352941, 100%, 98.3333333333%);}#my-svg .error-text{fill:rgb(8.5000000002, 5.7500000001, 0);stroke:rgb(8.5000000002, 5.7500000001, 0);}#my-svg .edge-thickness-normal{stroke-width:1px;}#my-svg .edge-thickness-thick{stroke-width:3.5px;}#my-svg .edge-pattern-solid{stroke-dasharray:0;}#my-svg .edge-thickness-invisible{stroke-width:0;fill:none;}#my-svg .edge-pattern-dashed{stroke-dasharray:3;}#my-svg .edge-pattern-dotted{stroke-dasharray:2;}#my-svg .marker{fill:#0b0b0b;stroke:#0b0b0b;}#my-svg .marker.cross{stroke:#0b0b0b;}#my-svg svg{font-family:"trebuchet ms",verdana,arial,sans-serif;font-size:16px;}#my-svg p{margin:0;}#my-svg .commit-id,#my-svg .commit-msg,#my-svg .branch-label{fill:lightgrey;color:lightgrey;font-family:'trebuchet ms',verdana,arial,sans-serif;font-family:var(--mermaid-font-family);}#my-svg .branch-label0{fill:#333;}#my-svg .commit0{stroke:hsl(40.5882352941, 100%, 68.3333333333%);fill:hsl(40.5882352941, 100%, 68.3333333333%);}#my-svg .commit-highlight0{stroke:rgb(0, 52.2500000001, 161.5000000002);fill:rgb(0, 52.2500000001, 161.5000000002);}#my-svg .label0{fill:hsl(40.5882352941, 100%, 68.3333333333%);}#my-svg .arrow0{stroke:hsl(40.5882352941, 100%, 68.3333333333%);}#my-svg .branch-label1{fill:#333;}#my-svg .commit1{stroke:hsl(-79.4117647059, 100%, 68.3333333333%);fill:hsl(-79.4117647059, 100%, 68.3333333333%);}#my-svg .commit-highlight1{stroke:rgb(52.2500000001, 161.5000000002, 0);fill:rgb(52.2500000001, 161.5000000002, 0);}#my-svg .label1{fill:hsl(-79.4117647059, 100%, 68.3333333333%);}#my-svg .arrow1{stroke:hsl(-79.4117647059, 100%, 68.3333333333%);}#my-svg .branch-label2{fill:#333;}#my-svg .commit2{stroke:hsl(220.5882352941, 100%, 73.3333333333%);fill:hsl(220.5882352941, 100%, 73.3333333333%);}#my-svg .commit-highlight2{stroke:rgb(136.0000000002, 92.0000000001, 0);fill:rgb(136.0000000002, 92.0000000001, 0);}#my-svg .label2{fill:hsl(220.5882352941, 100%, 73.3333333333%);}#my-svg .arrow2{stroke:hsl(220.5882352941, 100%, 73.3333333333%);}#my-svg .branch-label3{fill:#333;}#my-svg .commit3{stroke:hsl(10.5882352941, 100%, 68.3333333333%);fill:hsl(10.5882352941, 100%, 68.3333333333%);}#my-svg .commit-highlight3{stroke:rgb(0, 133.0000000002, 161.5000000002);fill:rgb(0, 133.0000000002, 161.5000000002);}#my-svg .label3{fill:hsl(10.5882352941, 100%, 68.3333333333%);}#my-svg .arrow3{stroke:hsl(10.5882352941, 100%, 68.3333333333%);}#my-svg .branch-label4{fill:#333;}#my-svg .commit4{stroke:hsl(-19.4117647059, 100%, 68.3333333333%);fill:hsl(-19.4117647059, 100%, 68.3333333333%);}#my-svg .commit-highlight4{stroke:rgb(0, 161.5000000002, 109.2500000001);fill:rgb(0, 161.5000000002, 109.2500000001);}#my-svg .label4{fill:hsl(-19.4117647059, 100%, 68.3333333333%);}#my-svg .arrow4{stroke:hsl(-19.4117647059, 100%, 68.3333333333%);}#my-svg .branch-label5{fill:#333;}#my-svg .commit5{stroke:hsl(-49.4117647059, 100%, 68.3333333333%);fill:hsl(-49.4117647059, 100%, 68.3333333333%);}#my-svg .commit-highlight5{stroke:rgb(0, 161.5000000002, 28.5);fill:rgb(0, 161.5000000002, 28.5);}#my-svg .label5{fill:hsl(-49.4117647059, 100%, 68.3333333333%);}#my-svg .arrow5{stroke:hsl(-49.4117647059, 100%, 68.3333333333%);}#my-svg .branch-label6{fill:#333;}#my-svg .commit6{stroke:hsl(100.5882352941, 100%, 68.3333333333%);fill:hsl(100.5882352941, 100%, 68.3333333333%);}#my-svg .commit-highlight6{stroke:rgb(109.2500000001, 0, 161.5000000002);fill:rgb(109.2500000001, 0, 161.5000000002);}#my-svg .label6{fill:hsl(100.5882352941, 100%, 68.3333333333%);}#my-svg .arrow6{stroke:hsl(100.5882352941, 100%, 68.3333333333%);}#my-svg .branch-label7{fill:#333;}#my-svg .commit7{stroke:hsl(160.5882352941, 100%, 68.3333333333%);fill:hsl(160.5882352941, 100%, 68.3333333333%);}#my-svg .commit-highlight7{stroke:rgb(161.5000000002, 0, 52.2500000001);fill:rgb(161.5000000002, 0, 52.2500000001);}#my-svg .label7{fill:hsl(160.5882352941, 100%, 68.3333333333%);}#my-svg .arrow7{stroke:hsl(160.5882352941, 100%, 68.3333333333%);}#my-svg .branch{stroke-width:1;stroke:#0b0b0b;stroke-dasharray:2;}#my-svg .commit-label{font-size:10px;fill:rgb(11.0000000001, 34.0000000002, 0);}#my-svg .commit-label-bkg{font-size:10px;fill:hsl(-79.4117647059, 100%, 93.3333333333%);opacity:0.5;}#my-svg .tag-label{font-size:10px;fill:#333;}#my-svg .tag-label-bkg{fill:#fff4dd;stroke:hsl(40.5882352941, 60%, 83.3333333333%);}#my-svg .tag-hole{fill:#333;}#my-svg .commit-merge{stroke:#fff4dd;fill:#fff4dd;}#my-svg .commit-reverse{stroke:#fff4dd;fill:#fff4dd;stroke-width:3;}#my-svg .commit-highlight-inner{stroke:#fff4dd;fill:#fff4dd;}#my-svg .arrow{stroke-width:8;stroke-linecap:round;fill:none;}#my-svg .gitTitleText{text-anchor:middle;font-size:18px;fill:#333;}#my-svg :root{--mermaid-font-family:"trebuchet ms",verdana,arial,sans-serif;}</style><g/><g class="commit-bullets"/><g class="commit-labels"/><g><line x1="0" y1="0" x2="750" y2="0" class="branch branch0"/><rect class="branchLabelBkg label0" rx="4" ry="4" x="-69" y="-1.5" width="53" height="23" transform="translate(-19, -9.5)"/><g class="branchLabel"><g class="label branch-label0" transform="translate(-79, -10.5)"><text><tspan xml:space="preserve" dy="1em" x="0" class="row">main</tspan></text></g></g><line x1="0" y1="90" x2="750" y2="90" class="branch branch1"/><rect class="branchLabelBkg label1" rx="4" ry="4" x="-101.34375" y="-1.5" width="85.34375" height="23" transform="translate(-19, 80.5)"/><g class="branchLabel"><g class="label branch-label1" transform="translate(-111.34375, 79.5)"><text><tspan xml:space="preserve" dy="1em" x="0" class="row">feature-1</tspan></text></g></g><line x1="0" y1="180" x2="750" y2="180" class="branch branch2"/><rect class="branchLabelBkg label2" rx="4" ry="4" x="-101.34375" y="-1.5" width="85.34375" height="23" transform="translate(-19, 170.5)"/><g class="branchLabel"><g class="label branch-label2" transform="translate(-111.34375, 169.5)"><text><tspan xml:space="preserve" dy="1em" x="0" class="row">feature-2</tspan></text></g></g><line x1="0" y1="270" x2="750" y2="270" class="branch branch3"/><rect class="branchLabelBkg label3" rx="4" ry="4" x="-101.34375" y="-1.5" width="85.34375" height="23" transform="translate(-19, 260.5)"/><g class="branchLabel"><g class="label branch-label3" transform="translate(-111.34375, 259.5)"><text><tspan xml:space="preserve" dy="1em" x="0" class="row">feature-3</tspan></text></g></g></g><g class="commit-arrows"><path d="M 10 0 L 10 160 A 20 20, 0, 0, 0, 30 180 L 60 180" class="arrow arrow2"/><path d="M 60 180 L 110 180" class="arrow arrow2"/><path d="M 10 0 L 10 70 A 20 20, 0, 0, 0, 30 90 L 160 90" class="arrow arrow1"/><path d="M 160 90 L 210 90" class="arrow arrow1"/><path d="M 10 0 L 260 0" class="arrow arrow0"/><path d="M 210 90 L 240 90 A 20 20, 0, 0, 0, 260 70 L 260 0" class="arrow arrow1"/><path d="M 110 180 L 310 180" class="arrow arrow2"/><path d="M 260 0 L 290 0 A 20 20, 0, 0, 1, 310 20 L 310 180" class="arrow arrow0"/><path d="M 310 180 L 360 180" class="arrow arrow2"/><path d="M 360 180 L 360 250 A 20 20, 0, 0, 0, 380 270 L 410 270" class="arrow arrow3"/><path d="M 410 270 L 460 270" class="arrow arrow3"/><path d="M 460 270 L 510 270" class="arrow arrow3"/><path d="M 510 270 L 560 270" class="arrow arrow3"/><path d="M 360 180 L 610 180" class="arrow arrow2"/><path d="M 560 270 L 590 270 A 20 20, 0, 0, 0, 610 250 L 610 180" class="arrow arrow3"/><path d="M 610 180 L 660 180" class="arrow arrow2"/><path d="M 260 0 L 710 0" class="arrow arrow0"/><path d="M 660 180 L 690 180 A 20 20, 0, 0, 0, 710 160 L 710 0" class="arrow arrow2"/></g><g class="commit-bullets"><circle cx="10" cy="0" r="10" class="commit 1.0.0 commit0"/><circle cx="60" cy="180" r="10" class="commit 1.0.1-alpha.68031.post.0.dev.{timestamp} commit2"/><path d="M 55,175L65,185M55,185L65,175" class="commit commit-reverse 1.0.1-alpha.68031.post.0.dev.{timestamp} commit2"/><circle cx="110" cy="180" r="10" class="commit 1.0.1-alpha.68031.post.1 commit2"/><circle cx="160" cy="90" r="10" class="commit 1.0.1-alpha.42954.post.1 commit1"/><circle cx="210" cy="90" r="10" class="commit 1.0.1-alpha.42954.post.2 commit1"/><circle cx="260" cy="0" r="9" class="commit 1.0.1 commit0"/><circle cx="260" cy="0" r="6" class="commit commit-merge 1.0.1 commit0"/><circle cx="310" cy="180" r="9" class="commit 1.0.2-alpha.68031.post.2 commit2"/><circle cx="310" cy="180" r="6" class="commit commit-merge 1.0.2-alpha.68031.post.2 commit2"/><circle cx="360" cy="180" r="10" class="commit 1.0.2-alpha.68031.post.3 commit2"/><circle cx="410" cy="270" r="10" class="commit 1.0.2-alpha.14698.post.4 commit3"/><circle cx="460" cy="270" r="10" class="commit 1.0.2-alpha.14698.post.4.dev.{timestamp} commit3"/><path d="M 455,265L465,275M455,275L465,265" class="commit commit-reverse 1.0.2-alpha.14698.post.4.dev.{timestamp} commit3"/><circle cx="510" cy="270" r="10" class="commit 1.0.2-alpha.14698.post.5 commit3"/><circle cx="560" cy="270" r="10" class="commit 1.0.2-alpha.14698.post.6 commit3"/><circle cx="610" cy="180" r="9" class="commit 1.0.2-alpha.68031.post.6 commit2"/><circle cx="610" cy="180" r="6" class="commit commit-merge 1.0.2-alpha.68031.post.6 commit2"/><circle cx="660" cy="180" r="10" class="commit 1.0.2-alpha.68031.post.7 commit2"/><circle cx="710" cy="0" r="9" class="commit 1.1.0 commit0"/><circle cx="710" cy="0" r="6" class="commit commit-merge 1.1.0 commit0"/></g><g class="commit-labels"><g transform="translate(-20.0696875, 17.8465625) rotate(-45, 0, 0)"><rect class="commit-label-bkg" x="-3.5390625" y="13.5" width="27.078125" height="15"/><text x="-1.5390625" y="25" class="commit-label">1.0.0</text></g><g transform="translate(-83.369375, 74.483125) rotate(-45, 50, 180)"><rect class="commit-label-bkg" x="-36.828125" y="193.5" width="193.65625" height="15.05078125"/><text x="-34.828125" y="205" class="commit-label">1.0.1-alpha.68031.post.0.dev.{timestamp}</text></g><polygon class="tag-label-bkg" points="18.171875,162.8  &#10;      18.171875,158.8&#10;      26.171875,153.3&#10;      93.828125,153.3&#10;      93.828125,168.3&#10;      26.171875,168.3"/><circle cy="160.8" cx="22.171875" r="1.5" class="tag-hole"/><text y="164" class="tag-label" x="30.171875">uncommitted</text><g transform="translate(-54.1153125, 48.3084375) rotate(-45, 100, 180)"><rect class="commit-label-bkg" x="51.6640625" y="193.5" width="116.671875" height="15.05078125"/><text x="53.6640625" y="205" class="commit-label">1.0.1-alpha.68031.post.1</text></g><g transform="translate(-54.1153125, 48.3084375) rotate(-45, 150, 90)"><rect class="commit-label-bkg" x="101.6640625" y="103.5" width="116.671875" height="15.05078125"/><text x="103.6640625" y="115" class="commit-label">1.0.1-alpha.42954.post.1</text></g><g transform="translate(-54.1153125, 48.3084375) rotate(-45, 200, 90)"><rect class="commit-label-bkg" x="151.6640625" y="103.5" width="116.671875" height="15.05078125"/><text x="153.6640625" y="115" class="commit-label">1.0.1-alpha.42954.post.2</text></g><g transform="translate(-20.0696875, 17.8465625) rotate(-45, 250, 0)"><rect class="commit-label-bkg" x="246.4609375" y="13.5" width="27.078125" height="15"/><text x="248.4609375" y="25" class="commit-label">1.0.1</text></g><polygon class="tag-label-bkg" points="206.40625,-17.2  &#10;      206.40625,-21.2&#10;      214.40625,-26.7&#10;      305.59375,-26.7&#10;      305.59375,-11.7&#10;      214.40625,-11.7"/><circle cy="-19.2" cx="210.40625" r="1.5" class="tag-hole"/><text y="-16" class="tag-label" x="218.40625">feature-1 released</text><g transform="translate(-54.1153125, 48.3084375) rotate(-45, 300, 180)"><rect class="commit-label-bkg" x="251.6640625" y="193.5" width="116.671875" height="15.05078125"/><text x="253.6640625" y="205" class="commit-label">1.0.2-alpha.68031.post.2</text></g><g transform="translate(-54.1153125, 48.3084375) rotate(-45, 350, 180)"><rect class="commit-label-bkg" x="301.6640625" y="193.5" width="116.671875" height="15.05078125"/><text x="303.6640625" y="205" class="commit-label">1.0.2-alpha.68031.post.3</text></g><g transform="translate(-54.1153125, 48.3084375) rotate(-45, 400, 270)"><rect class="commit-label-bkg" x="351.6640625" y="283.5" width="116.671875" height="15.05078125"/><text x="353.6640625" y="295" class="commit-label">1.0.2-alpha.14698.post.4</text></g><g transform="translate(-83.369375, 74.483125) rotate(-45, 450, 270)"><rect class="commit-label-bkg" x="363.171875" y="283.5" width="193.65625" height="15.05078125"/><text x="365.171875" y="295" class="commit-label">1.0.2-alpha.14698.post.4.dev.{timestamp}</text></g><polygon class="tag-label-bkg" points="418.171875,252.8  &#10;      418.171875,248.8&#10;      426.171875,243.3&#10;      493.828125,243.3&#10;      493.828125,258.3&#10;      426.171875,258.3"/><circle cy="250.8" cx="422.171875" r="1.5" class="tag-hole"/><text y="254" class="tag-label" x="430.171875">uncommitted</text><g transform="translate(-54.1153125, 48.3084375) rotate(-45, 500, 270)"><rect class="commit-label-bkg" x="451.6640625" y="283.5" width="116.671875" height="15.05078125"/><text x="453.6640625" y="295" class="commit-label">1.0.2-alpha.14698.post.5</text></g><g transform="translate(-54.1153125, 48.3084375) rotate(-45, 550, 270)"><rect class="commit-label-bkg" x="501.6640625" y="283.5" width="116.671875" height="15.05078125"/><text x="503.6640625" y="295" class="commit-label">1.0.2-alpha.14698.post.6</text></g><g transform="translate(-54.1153125, 48.3084375) rotate(-45, 600, 180)"><rect class="commit-label-bkg" x="551.6640625" y="193.5" width="116.671875" height="15.05078125"/><text x="553.6640625" y="205" class="commit-label">1.0.2-alpha.68031.post.6</text></g><polygon class="tag-label-bkg" points="558.6015625,162.8  &#10;      558.6015625,158.8&#10;      566.6015625,153.274609375&#10;      653.3984375,153.274609375&#10;      653.3984375,168.325390625&#10;      566.6015625,168.325390625"/><circle cy="160.8" cx="562.6015625" r="1.5" class="tag-hole"/><text y="164" class="tag-label" x="570.6015625">feature-3 merged</text><g transform="translate(-54.1153125, 48.3084375) rotate(-45, 650, 180)"><rect class="commit-label-bkg" x="601.6640625" y="193.5" width="116.671875" height="15.05078125"/><text x="603.6640625" y="205" class="commit-label">1.0.2-alpha.68031.post.7</text></g><g transform="translate(-20.0696875, 17.8465625) rotate(-45, 700, 0)"><rect class="commit-label-bkg" x="696.4609375" y="13.5" width="27.078125" height="15"/><text x="698.4609375" y="25" class="commit-label">1.1.0</text></g><polygon class="tag-label-bkg" points="656.40625,-17.2  &#10;      656.40625,-21.2&#10;      664.40625,-26.7&#10;      755.59375,-26.7&#10;      755.59375,-11.7&#10;      664.40625,-11.7"/><circle cy="-19.2" cx="660.40625" r="1.5" class="tag-hole"/><text y="-16" class="tag-label" x="668.40625">feature-2 released</text></g></svg>
